<svg xmlns="http://www.w3.org/2000/svg" viewBox="0 0 640 640" role="img" aria-labelledby="title"><title id="title">Astro Explorer avatar</title><defs><linearGradient id="s" x1="0" y1="0" x2="1" y2="1"><stop stop-color="#ffcf70"/><stop offset="1" stop-color="#e87563"/></linearGradient></defs><circle cx="320" cy="320" r="300" fill="#172744"/><circle cx="320" cy="320" r="210" fill="url(#s)" stroke="#ffe8a3" stroke-width="10"/><path d="M150 292C110 145 190 65 320 65s210 80 170 227" fill="#e8f3ff" stroke="#88c6ed" stroke-width="14"/><path d="M176 250h288v105H176z" fill="#8dd9e8" stroke="#2a5b82" stroke-width="9"/><path d="M207 276h226" stroke="#e9ffff" stroke-width="12" opacity=".8"/><circle cx="244" cy="390" r="25" fill="#ed7890"/><circle cx="396" cy="390" r="25" fill="#ed7890"/><path d="M270 414c33 25 67 25 100 0" fill="none" stroke="#303c71" stroke-width="11" stroke-linecap="round"/><circle cx="258" cy="305" r="13" fill="#303c71"/><circle cx="382" cy="305" r="13" fill="#303c71"/><path d="M119 475h-48M521 475h48M195 529l-27 39M445 529l27 39" stroke="#ffe06e" stroke-width="18" stroke-linecap="round"/></svg>
